<svg version="1.1" xmlns="http://www.w3.org/2000/svg"
    heigh="320" width="320"
    viewBox="0 0 320 320">
  <g>
    <circle  id="hand1" cx="60" cy="190" r="15" fill="white" stroke="black" stroke-width="2"/>
    <path id="stick" d="M40,40 L60,300 H66 L46,40 Z" fill="white" stroke="black" stroke-width="2"/>
    <ellipse  id="fingers" cx="50" cy="195" rx="5" ry="15" fill="white" stroke="black" stroke-width="2"/>
    <path id="thumb" d="M60,180 Q40,180 60,190 Z" fill="white" stroke="black" stroke-width="2"/>
  </g>
  <g id="hand2">
    <circle cx="240" cy="200" r="15" fill="white" stroke="black" stroke-width="2"/>
  </g>
  <g id="body">
    <path d="M60,170 H170 L240,180 V230 L190,220
             L200,222 L220,290 H120 V215
             L125,215 H60 V170" fill="white" stroke="black" stroke-width="2"/>
  </g>
  <g id="face">
    <circle cx="150" cy="150" r="30" fill="white" stroke="black" stroke-width="2"/>
    <circle cx="138" cy="145" r="2" fill="black" stroke="black"/>
    <circle cx="158" cy="145" r="2" fill="black" stroke="black"/>
    <path d="M132,158 Q145,175 170,155 " fill="none" stroke="black" stroke-width="2"/>
  </g>
  <g id="foot1">
    <path d="M120,300 C100,270 180,270 160,300 Z" fill="white" stroke="black" stroke-width="2"/>
  </g>
  <g id="foot1">
    <path d="M180,300 V290 H190 C210,270 250,280 240,300 Z" fill="white" stroke="black" stroke-width="2"/>
  </g>
</svg>
